<svg xmlns="http://www.w3.org/2000/svg" viewBox="0 0 48.44 48.44"><defs><style>.cls-1{fill:#fff;}.cls-2{fill:#5ac0ff;fill-rule:evenodd;}</style></defs><title>RowTop</title><g id="图层_2" data-name="图层 2"><g id="图层_1-2" data-name="图层 1"><circle class="cls-1" cx="24.22" cy="24.22" r="24.22"/><path class="cls-2" d="M15.46,15.75H26.12a.48.48,0,0,0,0-1H15.46a.48.48,0,1,0,0,1Z"/><path class="cls-2" d="M22.27,15.75H32.94a.48.48,0,0,0,0-1H22.27a.48.48,0,1,0,0,1Z"/><path class="cls-2" d="M23.74,18.71V29.37a.48.48,0,0,0,1,0V18.71a.48.48,0,1,0-1,0Z"/><path class="cls-2" d="M23.74,22.52V33.18a.48.48,0,0,0,1,0V22.52a.48.48,0,1,0-1,0Z"/><path class="cls-2" d="M15.61,25l8.88-5.9A.48.48,0,0,0,24,18.3l-8.88,5.9a.48.48,0,1,0,.54.81Z"/><path class="cls-2" d="M32.84,25a.48.48,0,1,0,.54-.81l-8.88-5.9a.48.48,0,0,0-.54.81L32.84,25Z"/></g></g></svg>